<?xml version="1.0" encoding="UTF-8" standalone="no"?>
<!-- Created with Inkscape (http://www.inkscape.org/) -->

<svg
   width="19.403063mm"
   height="32.658909mm"
   viewBox="0 0 19.403063 32.658909"
   version="1.1"
   id="svg1"
   xml:space="preserve"
   xmlns="http://www.w3.org/2000/svg"
   xmlns:svg="http://www.w3.org/2000/svg"><defs
     id="defs1" /><g
     id="layer1"
     transform="translate(81.859299,148.54714)"><rect
       style="fill:none;stroke:#e9ab26;stroke-width:0;stroke-linecap:round;stroke-dasharray:none;paint-order:fill markers stroke"
       id="rect8"
       width="39.6875"
       height="39.6875"
       x="-92.029411"
       y="-151.9184" /><path
       id="path3-8-7-2-4"
       style="fill:#e9ab26;fill-opacity:1;stroke-width:0.786339"
       d="m -71.323567,-148.5426 c -0.09584,0.0298 -0.169666,0.20394 -0.280512,0.4145 -0.297934,0.5664 -0.289822,0.60574 0.551385,2.6528 1.13925,2.7723 4.659743,11.19579 5.713371,13.67469 -0.01444,-0.007 -0.02781,-0.007 -0.03953,-0.004 -0.28641,0.0843 -1.125504,0.25776 -3.084661,0.63912 -3.259621,0.63448 -3.744972,1.27759 -3.744972,4.96341 0,2.39779 -2.47e-4,2.39814 0.468484,1.95778 0.989109,-0.92923 2.842552,-1.58653 6.276322,-2.22577 0.813978,-0.15145 1.56269,-0.35006 1.787173,-0.46848 0.02765,0.1462 0.05378,0.29074 0.07423,0.43187 -0.168779,0.004 -0.37143,0.049 -0.613076,0.14176 -0.334405,0.12832 -1.403514,0.35494 -2.376154,0.50318 -0.972641,0.14833 -2.096153,0.42216 -2.496648,0.60923 -0.504974,0.23587 -0.568922,0.30528 -0.208215,0.22651 0.286073,-0.0625 1.409586,-0.16064 2.49665,-0.2188 1.849511,-0.099 2.802034,-0.17034 3.282271,-0.29595 0.0041,0.14079 0.0057,0.27998 0.0019,0.4174 -0.46731,0.0512 -1.553133,0.13487 -2.763667,0.20917 -1.487575,0.0913 -2.938378,0.26012 -3.224434,0.37594 -0.396205,0.16048 -0.17337,0.18703 0.936003,0.109 0.800989,-0.0564 1.971397,-0.0131 2.600754,0.0965 1.075201,0.18755 1.847607,0.25206 2.352056,0.19183 -0.01712,0.10107 -0.03348,0.20209 -0.05495,0.30269 -0.475873,-0.0473 -1.223642,-0.083 -2.413746,-0.13881 -3.306292,-0.15489 -4.390783,-0.0651 -2.231561,0.18507 0.661815,0.0768 1.858547,0.3173 2.659558,0.535 0.734739,0.19968 1.290632,0.32223 1.713914,0.37691 -2.687619,7.83204 -13.890436,7.32826 -16.275446,-0.0416 0.293121,-0.0558 0.634282,-0.13553 1.046857,-0.24581 0.681997,-0.18233 1.942094,-0.45326 2.800296,-0.60248 1.908083,-0.33174 1.139698,-0.38329 -2.672089,-0.17832 -0.609145,0.0328 -1.065864,0.059 -1.417019,0.0858 -0.02218,-0.10762 -0.04403,-0.21571 -0.06265,-0.32582 0.306986,-0.007 0.672167,-0.029 1.031433,-0.0665 0.743797,-0.0776 2.178354,-0.1375 3.18877,-0.1311 2.709261,0.0165 1.489824,-0.33711 -1.837303,-0.5321 -1.021122,-0.0598 -1.950759,-0.12782 -2.506287,-0.17833 -0.01395,-0.13898 -0.02775,-0.28338 -0.03374,-0.41739 0.485933,0.12568 1.239398,0.19172 2.294216,0.20531 1.051024,0.0131 2.191922,0.0968 2.535206,0.18413 1.037688,0.26404 1.292005,0.19293 0.519574,-0.14457 -0.400496,-0.17499 -1.516239,-0.4458 -2.48026,-0.60247 -0.964024,-0.1567 -2.062463,-0.38702 -2.44074,-0.51186 -0.143755,-0.0474 -0.269108,-0.0783 -0.384619,-0.0993 0.01742,-0.12289 0.04153,-0.25226 0.06941,-0.38365 0.425781,0.194 1.263614,0.38214 2.65088,0.60537 2.222289,0.35761 3.901196,0.94125 4.785081,1.6638 0.335003,0.27384 0.632736,0.5012 0.661276,0.5051 0.318867,0.0459 -0.0044,-5.45844 -0.340276,-5.79434 -0.529206,-0.5292 -2.47513,-1.23597 -4.044762,-1.46906 -0.638632,-0.0949 -1.359069,-0.21752 -1.754403,-0.29595 0.694701,-1.42071 1.592572,-3.19201 2.778125,-5.51577 3.910705,-7.66507 3.910762,-7.66491 3.662071,-8.37967 -0.13652,-0.39321 -0.309383,-0.65427 -0.382691,-0.5803 -0.268892,0.27069 -8.292076,16.12234 -8.695854,17.18062 -0.715447,1.87506 -0.779717,3.84715 -0.320999,5.6748 0.0049,0.0764 0.02067,0.14341 0.04916,0.19954 0.859805,3.14413 3.282084,5.82741 6.63588,6.79397 h 9.69e-4 c 7.578843,2.18417 14.48889,-5.19097 11.853778,-12.65193 -0.493296,-1.3983 -0.676676,-1.8498 -5.307548,-13.10018 -2.221444,-5.39647 -2.700746,-6.60212 -2.988265,-6.51248 z" /></g></svg>
