<?xml version="1.0" encoding="UTF-8" standalone="no"?>
<!-- Created with Inkscape (http://www.inkscape.org/) -->

<svg
   width="243.61084mm"
   height="95.882072mm"
   viewBox="0 0 243.61084 95.882072"
   version="1.1"
   id="svg1"
   xml:space="preserve"
   xmlns="http://www.w3.org/2000/svg"
   xmlns:svg="http://www.w3.org/2000/svg"><defs
     id="defs1" /><g
     id="layer1"
     transform="translate(697.17707,542.66042)"><path
       id="path3-8-79-7-8"
       style="fill:#e9ab26;fill-opacity:1;stroke-width:2.00225"
       d="m -670.34762,-537.26819 c -0.244,0.0761 -0.43202,0.51928 -0.71428,1.05542 -0.75863,1.44223 -0.73798,1.54237 1.40399,6.75482 2.90085,7.05904 11.86501,28.50763 14.54785,34.81963 -0.0376,-0.0159 -0.0707,-0.0188 -0.10078,-0.0103 -0.72928,0.21484 -2.86583,0.6563 -7.85442,1.62734 -8.29989,1.61558 -9.53579,3.25314 -9.53579,12.63826 0,6.10551 -6.2e-4,6.10635 1.19294,4.98511 2.51856,-2.36611 7.23791,-4.03976 15.98128,-5.66747 2.07261,-0.38584 3.97903,-0.89141 4.55065,-1.19289 0.0707,0.37227 0.13706,0.74033 0.18884,1.09961 -0.42976,0.0132 -0.94575,0.12487 -1.56107,0.36083 -0.85149,0.32664 -3.57372,0.90379 -6.05036,1.28125 -2.4766,0.37749 -5.33739,1.07495 -6.35718,1.55125 -1.2858,0.60061 -1.44861,0.77735 -0.53015,0.57681 0.7284,-0.15905 3.58919,-0.40903 6.35717,-0.55717 4.70936,-0.25215 7.13479,-0.43374 8.35759,-0.75354 0.0132,0.35841 0.0166,0.7129 0.003,1.06281 -1.18992,0.13045 -3.95472,0.34344 -7.03707,0.53263 -3.78781,0.23252 -7.48196,0.6623 -8.21031,0.95726 -1.00885,0.40857 -0.44146,0.47617 2.38331,0.27733 2.03957,-0.14352 5.01974,-0.0342 6.62226,0.24547 2.73777,0.47753 4.70453,0.64178 5.98899,0.48844 -0.0433,0.25721 -0.0852,0.51456 -0.14,0.77071 -1.21168,-0.12046 -3.11573,-0.2114 -6.14608,-0.35346 -8.41872,-0.39453 -11.18016,-0.16603 -5.68217,0.47126 1.68515,0.19532 4.7324,0.80795 6.77198,1.36225 1.87087,0.50846 3.28633,0.82052 4.3641,0.95971 -6.84342,19.94262 -35.36899,18.65986 -41.44188,-0.10547 0.74637,-0.14191 1.61505,-0.34503 2.66559,-0.6259 1.73657,-0.46428 4.94513,-1.15414 7.13036,-1.53406 4.85849,-0.84471 2.90196,-0.97596 -6.80392,-0.45408 -1.55104,0.0834 -2.71396,0.14987 -3.60813,0.21842 -0.0564,-0.27395 -0.11193,-0.5493 -0.15959,-0.82963 0.78167,-0.0184 1.71151,-0.0737 2.62629,-0.16933 1.89394,-0.19783 5.54675,-0.34996 8.11955,-0.33383 6.89856,0.0405 3.79353,-0.8584 -4.6783,-1.35489 -2.60007,-0.15237 -4.9672,-0.32531 -6.38174,-0.45408 -0.0334,-0.35367 -0.0707,-0.72154 -0.0861,-1.0628 1.23733,0.32012 3.15588,0.48817 5.84175,0.5228 2.6762,0.0347 5.58127,0.24637 6.45537,0.46882 2.64221,0.67234 3.28978,0.49126 1.32295,-0.36819 -1.01977,-0.4456 -3.86077,-1.13512 -6.31543,-1.53406 -2.45467,-0.39887 -5.25162,-0.98545 -6.21483,-1.30333 -0.36601,-0.12076 -0.68521,-0.19942 -0.97935,-0.25282 0.0442,-0.31298 0.10577,-0.64236 0.17673,-0.9769 1.08418,0.49396 3.21752,0.97302 6.74991,1.54143 5.65855,0.91058 9.93354,2.39665 12.18419,4.23649 0.85299,0.69728 1.61111,1.27618 1.68376,1.28616 0.81194,0.11679 -0.0132,-13.89877 -0.86644,-14.75406 -1.34748,-1.34748 -6.30235,-3.14713 -10.29911,-3.74065 -1.62612,-0.24149 -3.46055,-0.55384 -4.46718,-0.75354 1.76889,-3.61751 4.05513,-8.12775 7.07388,-14.04469 9.95776,-19.51751 9.95789,-19.51708 9.32466,-21.33703 -0.34762,-1.00126 -0.78778,-1.66599 -0.97442,-1.47761 -0.68471,0.68924 -21.11401,41.05203 -22.1421,43.74667 -1.82174,4.77447 -1.9854,9.79597 -0.81737,14.44969 0.0133,0.19487 0.0527,0.36499 0.1253,0.50807 2.18933,8.00583 8.35712,14.83824 16.89683,17.29937 h 0.003 c 19.29787,5.56152 36.8928,-13.21769 30.18309,-32.21539 -1.25612,-3.56046 -1.72304,-4.7101 -13.51452,-33.35677 -5.65643,-13.74095 -6.8769,-16.81086 -7.60897,-16.58264 z" /><g
       id="text1-1-8-3-0-9"
       style="font-size:61.8032px;line-height:0.8;font-family:'Okta Neue';-inkscape-font-specification:'Okta Neue';word-spacing:21.9865px;fill:#e9ab26;stroke-width:1.54508"
       aria-label="Gotas&#10;Cultas"><path
         d="m -605.41672,-520.7027 h 15.26539 v 21.63112 q -3.58458,1.17426 -7.23097,1.73049 -3.64639,0.55623 -8.28163,0.55623 -6.86015,0 -11.5572,-2.71934 -4.69704,-2.78115 -7.16917,-7.84901 -2.41032,-5.12966 -2.41032,-12.11343 0,-6.92195 2.71934,-11.98982 2.71934,-5.06786 7.7872,-7.849 5.12967,-2.84295 12.36064,-2.84295 3.70819,0 6.98376,0.67984 3.33738,0.67983 6.18032,1.91589 l -2.10131,4.82065 q -2.34852,-1.05065 -5.31507,-1.79229 -2.90475,-0.74164 -6.05671,-0.74164 -7.91081,0 -12.36064,4.75885 -4.38803,4.75885 -4.38803,13.04047 0,5.25328 1.66868,9.33229 1.73049,4.01721 5.37688,6.30392 3.64639,2.22492 9.5795,2.22492 2.90475,0 4.94426,-0.30902 2.0395,-0.30901 3.70819,-0.74164 v -13.10227 h -9.70311 z m 53.89243,6.67475 q 0,8.21982 -4.20261,12.73146 -4.14082,4.51163 -11.24819,4.51163 -4.38802,0 -7.849,-1.9777 -3.39918,-2.03951 -5.37688,-5.87131 -1.9777,-3.8936 -1.9777,-9.39408 0,-8.21983 4.14081,-12.66966 4.14081,-4.44983 11.24818,-4.44983 4.51164,0 7.91081,2.03951 3.46098,1.9777 5.37688,5.8095 1.9777,3.76999 1.9777,9.27048 z m -25.03029,0 q 0,5.8713 2.28672,9.33228 2.34852,3.39918 7.41638,3.39918 5.00606,0 7.35458,-3.39918 2.34852,-3.46098 2.34852,-9.33228 0,-5.87131 -2.34852,-9.20868 -2.34852,-3.33737 -7.41638,-3.33737 -5.06787,0 -7.35458,3.33737 -2.28672,3.33737 -2.28672,9.20868 z m 44.68368,12.79326 q 1.23607,0 2.53393,-0.18541 1.29787,-0.24721 2.10131,-0.49443 v 4.14082 q -0.86524,0.43262 -2.47213,0.67983 -1.60688,0.30902 -3.09016,0.30902 -2.59573,0 -4.82065,-0.86525 -2.16311,-0.92704 -3.52278,-3.15196 -1.35967,-2.22491 -1.35967,-6.24212 v -19.2826 h -4.69704 v -2.59573 l 4.75884,-2.16312 2.16312,-7.04556 h 3.21376 v 7.60179 h 9.5795 v 4.20262 h -9.5795 v 19.15899 q 0,3.02836 1.42148,4.51163 1.48327,1.42148 3.76999,1.42148 z m 23.79424,-29.85095 q 6.05671,0 8.96146,2.65754 2.90475,2.65754 2.90475,8.46704 v 22.55817 h -3.9554 l -1.05066,-4.69705 h -0.24721 q -2.16311,2.71934 -4.57344,4.01721 -2.34852,1.29787 -6.55114,1.29787 -4.51163,0 -7.47818,-2.34852 -2.96656,-2.41033 -2.96656,-7.47819 0,-4.94426 3.8936,-7.60179 3.89361,-2.71934 11.98983,-2.96656 l 5.62409,-0.18541 v -1.9777 q 0,-4.14081 -1.7923,-5.7477 -1.79229,-1.60688 -5.06786,-1.60688 -2.59573,0 -4.94425,0.80344 -2.34853,0.74164 -4.38803,1.73049 l -1.66869,-4.07901 q 2.16311,-1.17426 5.12967,-1.9777 2.96655,-0.86525 6.18032,-0.86525 z m 1.60688,17.67572 q -6.18032,0.24721 -8.59064,1.9777 -2.34853,1.73049 -2.34853,4.88245 0,2.78115 1.66869,4.07901 1.73049,1.29787 4.38803,1.29787 4.20262,0 6.98376,-2.28672 2.78114,-2.34852 2.78114,-7.16917 v -2.96655 z m 42.08802,6.86015 q 0,4.82065 -3.58458,7.29278 -3.58459,2.47213 -9.6413,2.47213 -3.46098,0 -5.99491,-0.55623 -2.47213,-0.55623 -4.38803,-1.54508 v -4.94426 q 1.9777,0.98886 4.75885,1.8541 2.84294,0.80344 5.74769,0.80344 4.14082,0 5.99492,-1.29787 1.85409,-1.35967 1.85409,-3.58458 0,-1.23607 -0.67983,-2.22492 -0.67984,-0.98885 -2.47213,-1.9777 -1.73049,-0.98885 -5.00606,-2.22491 -3.21377,-1.23607 -5.50049,-2.47213 -2.28671,-1.23607 -3.52278,-2.96656 -1.23606,-1.73048 -1.23606,-4.44983 0,-4.20261 3.39917,-6.48933 3.46098,-2.28672 9.02327,-2.28672 3.02836,0 5.62409,0.61803 2.65754,0.55623 4.94426,1.60689 l -1.8541,4.32622 q -2.10131,-0.86525 -4.38803,-1.48328 -2.28671,-0.61803 -4.69704,-0.61803 -3.33737,0 -5.12966,1.11246 -1.73049,1.05065 -1.73049,2.90475 0,1.35967 0.80344,2.34852 0.80344,0.92705 2.65754,1.8541 1.91589,0.86524 5.06786,2.1013 3.15196,1.17427 5.37688,2.41033 2.22491,1.23606 3.39917,3.02836 1.17426,1.73049 1.17426,4.38802 z"
         id="path13" /><path
         d="m -605.66393,-487.8234 q -7.10737,0 -11.18638,4.75885 -4.07901,4.75885 -4.07901,13.04048 0,8.21982 3.77,13.04047 3.8318,4.75885 11.43359,4.75885 2.90475,0 5.50048,-0.49443 2.59574,-0.49442 5.06787,-1.23606 v 4.82065 q -2.47213,0.92704 -5.12967,1.35967 -2.59573,0.43262 -6.24212,0.43262 -6.73655,0 -11.24819,-2.78114 -4.51163,-2.78115 -6.79835,-7.91081 -2.22491,-5.12967 -2.22491,-12.05163 0,-6.67474 2.41032,-11.74261 2.47213,-5.12966 7.23098,-7.97261 4.75884,-2.90475 11.5572,-2.90475 6.98376,0 12.17523,2.59574 l -2.22492,4.69704 q -2.03951,-0.92705 -4.57344,-1.66869 -2.47212,-0.74164 -5.43868,-0.74164 z m 47.09404,6.73655 v 33.12652 h -4.44983 l -0.80344,-4.38803 h -0.24722 q -1.60688,2.59573 -4.44983,3.8318 -2.84294,1.17426 -6.05671,1.17426 -5.99491,0 -9.02327,-2.84295 -3.02835,-2.90475 -3.02835,-9.20867 v -21.69293 h 5.50048 v 21.32211 q 0,7.91081 7.35458,7.91081 5.50049,0 7.60179,-3.09016 2.16312,-3.09016 2.16312,-8.89966 v -17.2431 z m 15.94522,33.12652 h -5.43868 v -46.97043 h 5.43868 z m 21.56929,-3.8318 q 1.23606,0 2.53393,-0.18541 1.29786,-0.24721 2.10131,-0.49443 v 4.14082 q -0.86525,0.43262 -2.47213,0.67983 -1.60689,0.30902 -3.09016,0.30902 -2.59574,0 -4.82065,-0.86525 -2.16311,-0.92704 -3.52278,-3.15196 -1.35968,-2.22491 -1.35968,-6.24212 v -19.2826 h -4.69704 v -2.59573 l 4.75885,-2.16312 2.16311,-7.04556 h 3.21377 v 7.60179 h 9.57949 v 4.20262 h -9.57949 v 19.15899 q 0,3.02836 1.42147,4.51164 1.48328,1.42147 3.77,1.42147 z m 23.79423,-29.85095 q 6.05671,0 8.96146,2.65754 2.90476,2.65754 2.90476,8.46704 v 22.55817 h -3.95541 l -1.05065,-4.69705 h -0.24722 q -2.16311,2.71935 -4.57343,4.01721 -2.34853,1.29787 -6.55114,1.29787 -4.51164,0 -7.47819,-2.34852 -2.96655,-2.41033 -2.96655,-7.47819 0,-4.94426 3.8936,-7.60179 3.8936,-2.71934 11.98982,-2.96656 l 5.62409,-0.18541 v -1.9777 q 0,-4.14081 -1.79229,-5.7477 -1.7923,-1.60688 -5.06787,-1.60688 -2.59573,0 -4.94425,0.80344 -2.34852,0.74164 -4.38803,1.73049 l -1.66868,-4.07901 q 2.16311,-1.17426 5.12966,-1.9777 2.96655,-0.86525 6.18032,-0.86525 z m 1.60688,17.67572 q -6.18032,0.24721 -8.59064,1.9777 -2.34852,1.73049 -2.34852,4.88245 0,2.78115 1.66868,4.07902 1.73049,1.29786 4.38803,1.29786 4.20262,0 6.98376,-2.28672 2.78115,-2.34852 2.78115,-7.16917 v -2.96655 z m 42.08803,6.86015 q 0,4.82065 -3.58458,7.29278 -3.58459,2.47213 -9.6413,2.47213 -3.46098,0 -5.99491,-0.55623 -2.47213,-0.55623 -4.38803,-1.54508 v -4.94426 q 1.9777,0.98886 4.75885,1.8541 2.84295,0.80344 5.7477,0.80344 4.14081,0 5.99491,-1.29786 1.85409,-1.35968 1.85409,-3.58459 0,-1.23606 -0.67983,-2.22492 -0.67984,-0.98885 -2.47213,-1.9777 -1.73049,-0.98885 -5.00606,-2.22491 -3.21377,-1.23607 -5.50048,-2.47213 -2.28672,-1.23607 -3.52279,-2.96655 -1.23606,-1.73049 -1.23606,-4.44984 0,-4.20261 3.39917,-6.48933 3.46098,-2.28672 9.02327,-2.28672 3.02836,0 5.62409,0.61803 2.65754,0.55623 4.94426,1.60689 l -1.8541,4.32622 q -2.10131,-0.86525 -4.38802,-1.48328 -2.28672,-0.61803 -4.69705,-0.61803 -3.33737,0 -5.12966,1.11246 -1.73049,1.05065 -1.73049,2.90475 0,1.35967 0.80344,2.34852 0.80344,0.92705 2.65754,1.8541 1.9159,0.86524 5.06786,2.10131 3.15196,1.17426 5.37688,2.41032 2.22491,1.23606 3.39917,3.02836 1.17426,1.73049 1.17426,4.38802 z"
         id="path14" /></g><path
       style="fill:#e9ab26;fill-opacity:1;stroke:#e9ab26;stroke-width:4.40789;stroke-linecap:round;stroke-linejoin:miter;stroke-dasharray:none;stroke-opacity:1"
       d="m -637.73309,-540.45647 v 91.47419"
       id="path2-5-3-4-8-3-6" /></g></svg>
