<?xml version="1.0" encoding="UTF-8" standalone="no"?>
<!-- Created with Inkscape (http://www.inkscape.org/) -->

<svg
   width="281.44293mm"
   height="65.27037mm"
   viewBox="0 0 281.44293 65.27037"
   version="1.1"
   id="svg1"
   xml:space="preserve"
   xmlns="http://www.w3.org/2000/svg"
   xmlns:svg="http://www.w3.org/2000/svg"><defs
     id="defs1" /><g
     id="layer1"
     transform="translate(589.75623,-265.11252)"><path
       id="path3-8-79-2"
       style="fill:#e9ab26;fill-opacity:1;stroke-width:1.363"
       d="m -571.49244,268.78318 c -0.1661,0.0518 -0.29409,0.3535 -0.48624,0.71847 -0.51642,0.98177 -0.50237,1.04994 0.95575,4.59824 1.97471,4.80534 8.07694,19.40616 9.90324,23.70297 -0.0256,-0.0108 -0.0481,-0.0128 -0.0686,-0.007 -0.49645,0.14625 -1.95088,0.44677 -5.34679,1.10779 -5.65003,1.09978 -6.49135,2.21453 -6.49135,8.60331 0,4.15624 -4.2e-4,4.15681 0.81208,3.39354 1.71447,-1.61069 4.9271,-2.75001 10.87902,-3.85804 1.4109,-0.26266 2.70867,-0.60682 3.09779,-0.81205 0.0481,0.25342 0.0933,0.50397 0.12855,0.74855 -0.29255,0.009 -0.64381,0.085 -1.06267,0.24563 -0.57964,0.22235 -2.43276,0.61524 -4.1187,0.87219 -1.68591,0.25697 -3.63335,0.73175 -4.32756,1.05599 -0.87529,0.40886 -0.98612,0.52917 -0.36089,0.39266 0.49585,-0.10828 2.44329,-0.27845 4.32755,-0.37929 3.20583,-0.17165 4.85691,-0.29526 5.68931,-0.51296 0.009,0.24398 0.0113,0.48529 0.002,0.72349 -0.81002,0.0888 -2.69212,0.23379 -4.79038,0.36258 -2.5785,0.15828 -5.09324,0.45085 -5.58905,0.65164 -0.68676,0.27813 -0.30052,0.32415 1.6224,0.18879 1.38841,-0.0978 3.41712,-0.0233 4.50801,0.1671 1.8637,0.32507 3.20254,0.43688 4.07692,0.3325 -0.0295,0.17509 -0.058,0.35028 -0.0953,0.52465 -0.82484,-0.082 -2.12099,-0.14391 -4.18386,-0.24061 -5.73092,-0.26858 -7.61073,-0.11303 -3.86805,0.3208 1.14714,0.13296 3.22151,0.55 4.60992,0.92733 1.27357,0.34613 2.23712,0.55856 2.9708,0.65331 -4.65856,13.57565 -24.07693,12.70243 -28.21096,-0.0718 0.50808,-0.0966 1.09942,-0.23487 1.81456,-0.42607 1.18215,-0.31605 3.36633,-0.78566 4.85389,-1.04429 3.30735,-0.57502 1.97547,-0.66437 -4.63167,-0.30911 -1.05585,0.0568 -1.84749,0.10202 -2.45618,0.14869 -0.0384,-0.18649 -0.0762,-0.37393 -0.10864,-0.56476 0.53211,-0.0125 1.16508,-0.0502 1.78781,-0.11527 1.28927,-0.13467 3.77587,-0.23823 5.52726,-0.22725 4.6961,0.0276 2.5824,-0.58434 -3.18468,-0.92232 -1.76996,-0.10373 -3.38135,-0.22145 -4.34428,-0.30911 -0.0227,-0.24076 -0.0481,-0.49118 -0.0586,-0.72349 0.8423,0.21792 2.14832,0.33232 3.97669,0.35589 1.82178,0.0236 3.79937,0.16772 4.3944,0.31914 1.79865,0.45769 2.23947,0.33442 0.90058,-0.25063 -0.69419,-0.30334 -2.62816,-0.77272 -4.29914,-1.04429 -1.67098,-0.27153 -3.57496,-0.67083 -4.23065,-0.88723 -0.24916,-0.0822 -0.46645,-0.13575 -0.66668,-0.1721 0.0301,-0.21306 0.072,-0.43728 0.12031,-0.66501 0.73803,0.33626 2.19027,0.66237 4.5949,1.04931 3.85198,0.61986 6.76211,1.63148 8.29421,2.88392 0.58066,0.47467 1.09674,0.86875 1.1462,0.87554 0.55271,0.0795 -0.009,-9.46139 -0.58982,-10.04361 -0.91728,-0.91728 -4.29024,-2.14237 -7.01097,-2.5464 -1.10696,-0.16439 -2.35572,-0.37702 -3.04097,-0.51296 1.20414,-2.46257 2.76047,-5.53285 4.81544,-9.56072 6.7786,-13.28626 6.77869,-13.28597 6.34763,-14.52488 -0.23664,-0.68159 -0.53627,-1.1341 -0.66332,-1.00586 -0.46611,0.46919 -14.37306,27.94558 -15.07292,29.77992 -1.24012,3.25015 -1.35153,6.66846 -0.55641,9.83642 0.009,0.13265 0.0359,0.24846 0.0853,0.34586 1.49035,5.44985 5.68898,10.10092 11.50227,11.7763 h 0.002 c 13.13675,3.78592 25.11424,-8.99776 20.5467,-21.93017 -0.85508,-2.42373 -1.17293,-3.20633 -9.19981,-22.70714 -3.85053,-9.35395 -4.68135,-11.44375 -5.1797,-11.28839 z" /><path
       d="m -526.70706,297.89178 h 10.39169 v 14.72506 q -2.44016,0.79936 -4.92238,1.17801 -2.48222,0.37864 -5.63759,0.37864 -4.66995,0 -7.86739,-1.85115 -3.19745,-1.89322 -4.88031,-5.34309 -1.64079,-3.49194 -1.64079,-8.24603 0,-4.71202 1.85115,-8.1619 1.85115,-3.44987 5.30102,-5.34309 3.49194,-1.93529 8.41432,-1.93529 2.5243,0 4.75409,0.46278 2.27187,0.46279 4.20716,1.30422 l -1.43043,3.28159 q -1.59872,-0.71522 -3.61816,-1.22008 -1.97737,-0.50486 -4.12302,-0.50486 -5.38516,0 -8.41432,3.23952 -2.98708,3.23951 -2.98708,8.87711 0,3.57608 1.13593,6.35281 1.17801,2.73465 3.66023,4.2913 2.48223,1.51458 6.5211,1.51458 1.97736,0 3.36573,-0.21036 1.38836,-0.21036 2.52429,-0.50486 v -8.91918 h -6.60524 z m 36.68647,4.54374 q 0,5.59552 -2.86087,8.66675 -2.8188,3.07122 -7.65704,3.07122 -2.98708,0 -5.34309,-1.34629 -2.31394,-1.38836 -3.66023,-3.9968 -1.34629,-2.65051 -1.34629,-6.39488 0,-5.59553 2.8188,-8.62468 2.8188,-3.02916 7.65703,-3.02916 3.07123,0 5.38516,1.38837 2.35601,1.34629 3.66023,3.95473 1.3463,2.56636 1.3463,6.31074 z m -17.039,0 q 0,3.9968 1.55665,6.35281 1.59872,2.31394 5.04859,2.31394 3.4078,0 5.00652,-2.31394 1.59872,-2.35601 1.59872,-6.35281 0,-3.99681 -1.59872,-6.26867 -1.59872,-2.27187 -5.04859,-2.27187 -3.44987,0 -5.00652,2.27187 -1.55665,2.27186 -1.55665,6.26867 z m 30.41774,8.70882 q 0.84144,0 1.72494,-0.12622 0.8835,-0.16828 1.43043,-0.33657 v 2.8188 q -0.589,0.2945 -1.68286,0.46279 -1.09386,0.21035 -2.10358,0.21035 -1.76701,0 -3.28158,-0.589 -1.47251,-0.63107 -2.39809,-2.14565 -0.92557,-1.51458 -0.92557,-4.24923 v -13.12634 h -3.19744 v -1.76701 l 3.23951,-1.47251 1.47251,-4.79616 h 2.18772 v 5.17481 h 6.5211 v 2.86087 h -6.5211 v 13.04219 q 0,2.06151 0.96765,3.07123 1.00971,0.96765 2.56636,0.96765 z m 16.19757,-20.32059 q 4.12302,0 6.10039,1.80908 1.97736,1.80908 1.97736,5.76381 v 15.35614 h -2.69258 l -0.71522,-3.19744 h -0.16829 q -1.4725,1.85115 -3.11329,2.73465 -1.59872,0.8835 -4.45959,0.8835 -3.07123,0 -5.09067,-1.59872 -2.01943,-1.64079 -2.01943,-5.09066 0,-3.36573 2.65051,-5.17481 2.65051,-1.85115 8.16189,-2.01944 l 3.82851,-0.12621 v -1.34629 q 0,-2.8188 -1.22007,-3.91266 -1.22008,-1.09386 -3.44987,-1.09386 -1.76701,0 -3.36573,0.54693 -1.59872,0.50486 -2.98709,1.178 l -1.13593,-2.77672 q 1.47251,-0.79936 3.49194,-1.34629 2.01944,-0.58901 4.20716,-0.58901 z m 1.09387,12.03248 q -4.20717,0.16829 -5.84796,1.34629 -1.59872,1.17801 -1.59872,3.32366 0,1.89322 1.13593,2.77673 1.17801,0.8835 2.98709,0.8835 2.86087,0 4.75409,-1.55665 1.89322,-1.59872 1.89322,-4.88031 v -2.01943 z m 28.65079,4.66995 q 0,3.28158 -2.44015,4.96445 -2.44016,1.68286 -6.56317,1.68286 -2.35601,0 -4.08095,-0.37864 -1.68286,-0.37865 -2.98708,-1.05179 v -3.36573 q 1.34629,0.67315 3.23951,1.26215 1.9353,0.54693 3.91266,0.54693 2.8188,0 4.08095,-0.8835 1.26214,-0.92558 1.26214,-2.44016 0,-0.84143 -0.46278,-1.51457 -0.46279,-0.67315 -1.68287,-1.3463 -1.178,-0.67314 -3.4078,-1.51457 -2.18772,-0.84144 -3.74437,-1.68287 -1.55665,-0.84143 -2.39808,-2.01943 -0.84143,-1.17801 -0.84143,-3.02916 0,-2.86087 2.31394,-4.41752 2.35601,-1.55665 6.14245,-1.55665 2.06151,0 3.82851,0.42072 1.80908,0.37864 3.36573,1.09386 l -1.26214,2.94501 q -1.43044,-0.589 -2.98709,-1.00972 -1.55665,-0.42071 -3.19744,-0.42071 -2.27187,0 -3.49194,0.75729 -1.17801,0.71521 -1.17801,1.97736 0,0.92558 0.54693,1.59872 0.54693,0.63108 1.80908,1.26215 1.30422,0.589 3.44987,1.43044 2.14565,0.79936 3.66023,1.64079 1.51458,0.84143 2.31394,2.06151 0.79936,1.178 0.79936,2.98708 z m 18.84809,-20.90959 q -4.83824,0 -7.61496,3.23952 -2.77673,3.23951 -2.77673,8.87711 0,5.59552 2.56637,8.8771 2.60844,3.23952 7.78325,3.23952 1.97736,0 3.74437,-0.33658 1.767,-0.33657 3.44987,-0.84143 v 3.28159 q -1.68287,0.63107 -3.49194,0.92557 -1.76701,0.2945 -4.24924,0.2945 -4.5858,0 -7.65703,-1.89322 -3.07122,-1.89322 -4.62787,-5.38516 -1.51458,-3.49195 -1.51458,-8.20397 0,-4.54373 1.64079,-7.9936 1.68287,-3.49194 4.92238,-5.42724 3.23951,-1.97736 7.86739,-1.97736 4.75409,0 8.2881,1.767 l -1.51457,3.19745 q -1.38837,-0.63108 -3.1133,-1.13594 -1.68287,-0.50486 -3.7023,-0.50486 z m 32.05856,4.58581 v 22.55038 h -3.02915 l -0.54693,-2.98709 h -0.16829 q -1.09386,1.76701 -3.02916,2.60844 -1.93529,0.79936 -4.12301,0.79936 -4.08095,0 -6.14246,-1.93529 -2.06151,-1.97737 -2.06151,-6.26867 V 291.2024 h 3.74438 v 14.5147 q 0,5.38517 5.00652,5.38517 3.74437,0 5.1748,-2.10358 1.47251,-2.10358 1.47251,-6.05831 V 291.2024 Z m 10.85447,22.55038 h -3.7023 v -31.97442 h 3.7023 z m 14.68296,-2.60844 q 0.84143,0 1.72494,-0.12622 0.8835,-0.16828 1.43043,-0.33657 v 2.8188 q -0.589,0.2945 -1.68286,0.46279 -1.09386,0.21035 -2.10358,0.21035 -1.76701,0 -3.28159,-0.589 -1.4725,-0.63107 -2.39808,-2.14565 -0.92557,-1.51458 -0.92557,-4.24923 v -13.12634 h -3.19745 v -1.76701 l 3.23952,-1.47251 1.4725,-4.79616 h 2.18773 v 5.17481 h 6.52109 v 2.86087 h -6.52109 v 13.04219 q 0,2.06151 0.96764,3.07123 1.00972,0.96765 2.56637,0.96765 z m 16.19757,-20.32059 q 4.12302,0 6.10038,1.80908 1.97737,1.80908 1.97737,5.76381 v 15.35614 h -2.69258 l -0.71522,-3.19744 h -0.16829 q -1.4725,1.85115 -3.1133,2.73465 -1.59872,0.8835 -4.45959,0.8835 -3.07122,0 -5.09066,-1.59872 -2.01944,-1.64079 -2.01944,-5.09066 0,-3.36573 2.65051,-5.17481 2.65051,-1.85115 8.16189,-2.01944 l 3.82852,-0.12621 v -1.34629 q 0,-2.8188 -1.22008,-3.91266 -1.22007,-1.09386 -3.44987,-1.09386 -1.76701,0 -3.36573,0.54693 -1.59872,0.50486 -2.98708,1.178 l -1.13593,-2.77672 q 1.4725,-0.79936 3.49194,-1.34629 2.01944,-0.58901 4.20716,-0.58901 z m 1.09386,12.03248 q -4.20716,0.16829 -5.84795,1.34629 -1.59872,1.17801 -1.59872,3.32366 0,1.89322 1.13593,2.77673 1.17801,0.8835 2.98709,0.8835 2.86086,0 4.75409,-1.55665 1.89322,-1.59872 1.89322,-4.88031 v -2.01943 z m 28.6508,4.66995 q 0,3.28158 -2.44016,4.96445 -2.44015,1.68286 -6.56317,1.68286 -2.356,0 -4.08094,-0.37864 -1.68286,-0.37865 -2.98708,-1.05179 v -3.36573 q 1.34629,0.67315 3.23951,1.26215 1.93529,0.54693 3.91266,0.54693 2.8188,0 4.08094,-0.8835 1.26215,-0.92558 1.26215,-2.44016 0,-0.84143 -0.46279,-1.51457 -0.46278,-0.67315 -1.68286,-1.3463 -1.17801,-0.67314 -3.4078,-1.51457 -2.18772,-0.84144 -3.74437,-1.68287 -1.55665,-0.84143 -2.39808,-2.01943 -0.84144,-1.17801 -0.84144,-3.02916 0,-2.86087 2.31394,-4.41752 2.35601,-1.55665 6.14246,-1.55665 2.0615,0 3.82851,0.42072 1.80908,0.37864 3.36573,1.09386 l -1.26215,2.94501 q -1.43043,-0.589 -2.98708,-1.00972 -1.55665,-0.42071 -3.19744,-0.42071 -2.27187,0 -3.49195,0.75729 -1.178,0.71521 -1.178,1.97736 0,0.92558 0.54693,1.59872 0.54693,0.63108 1.80908,1.26215 1.30422,0.589 3.44987,1.43044 2.14565,0.79936 3.66023,1.64079 1.51458,0.84143 2.31394,2.06151 0.79936,1.178 0.79936,2.98708 z"
       id="text1-1-8-3-02"
       style="font-size:42.0716px;line-height:0.8;font-family:'Okta Neue';-inkscape-font-specification:'Okta Neue';word-spacing:14.967px;fill:#e9ab26;stroke-width:1.05179"
       aria-label="GotasCultas" /><path
       style="fill:#e9ab26;fill-opacity:1;stroke:#e9ab26;stroke-width:3.00061;stroke-linecap:round;stroke-linejoin:miter;stroke-dasharray:none;stroke-opacity:1"
       d="m -549.29057,266.61281 v 62.26974"
       id="path2-5-3-4-8-7" /></g></svg>
